# Blender v2.79 (sub 0) OBJ File: ''
# www.blender.org
mtllib asteroid.mtl
o Sphere
v 0.000000 -0.500000 -0.866025
v 0.000000 -1.000000 -0.000000
v -0.000000 1.000000 -0.000000
v 0.293893 0.866025 -0.404509
v 0.509037 0.500000 -0.700629
v 0.587785 -0.000000 -0.809017
v 0.509037 -0.500000 -0.700629
v 0.293893 -0.866025 -0.404509
v 0.475528 0.866025 -0.154509
v 0.823639 0.500000 -0.267617
v 0.951056 -0.000000 -0.309017
v 0.823639 -0.500000 -0.267617
v 0.475528 -0.866025 -0.154509
v 0.475528 0.866025 0.154508
v 0.823639 0.500000 0.267616
v 0.951056 -0.000000 0.309017
v 0.823639 -0.500000 0.267616
v 0.475528 -0.866025 0.154508
v 0.293893 0.866025 0.404508
v 0.509037 0.500000 0.700629
v 0.587785 -0.000000 0.809017
v 0.509037 -0.500000 0.700629
v 0.293893 -0.866025 0.404508
v 0.000000 0.866025 0.500000
v 0.000000 0.500000 0.866025
v -0.000000 -0.000000 1.000000
v -0.000000 -0.500000 0.866025
v 0.000000 -0.866025 0.500000
v -0.293893 0.866025 0.404508
v -0.509037 0.500000 0.700629
v -0.587785 -0.000000 0.809017
v -0.509037 -0.500000 0.700629
v -0.293893 -0.866025 0.404508
v -0.475528 0.866025 0.154508
v -0.823639 0.500000 0.267616
v -0.951056 -0.000000 0.309017
v -0.823639 -0.500000 0.267616
v -0.475528 -0.866025 0.154508
v -0.475528 0.866025 -0.154509
v -0.823639 0.500000 -0.267617
v -0.951056 -0.000000 -0.309017
v -0.823639 -0.500000 -0.267617
v -0.475528 -0.866025 -0.154509
v -0.293893 0.866025 -0.404508
v -0.509037 0.500000 -0.700629
v -0.587785 -0.000000 -0.809017
v -0.509037 -0.500000 -0.700629
v -0.293893 -0.866025 -0.404509
v -0.000000 0.866025 -0.500000
v -0.000000 0.500000 -0.866025
v -0.000000 -0.000000 -1.000000
v -0.000000 -0.866025 -0.500000
vt 0.000000 0.000000
vt 1.000000 0.000000
vt 1.000000 1.000000
vt 0.000000 0.000000
vt 1.000000 0.000000
vt 1.000000 1.000000
vt 0.000000 0.000000
vt 1.000000 0.000000
vt 1.000000 1.000000
vt 0.000000 1.000000
vt 0.000000 0.000000
vt 1.000000 0.000000
vt 0.000000 1.000000
vt 0.000000 0.000000
vt 1.000000 0.000000
vt 1.000000 1.000000
vt 0.000000 1.000000
vt 0.000000 0.000000
vt 1.000000 0.000000
vt 1.000000 1.000000
vt 0.000000 1.000000
vt 1.000000 0.000000
vt 1.000000 1.000000
vt 0.000000 0.000000
vt 1.000000 0.000000
vt 1.000000 1.000000
vt 0.000000 1.000000
vt 0.000000 0.000000
vt 1.000000 0.000000
vt 1.000000 1.000000
vt 0.000000 1.000000
vt 0.000000 0.000000
vt 1.000000 0.000000
vt 1.000000 1.000000
vt 0.000000 1.000000
vt 0.000000 0.000000
vt 1.000000 0.000000
vt 1.000000 1.000000
vt 0.000000 1.000000
vt 0.000000 0.000000
vt 0.000000 0.000000
vt 1.000000 0.000000
vt 1.000000 1.000000
vt 0.000000 1.000000
vt 0.000000 0.000000
vt 1.000000 0.000000
vt 1.000000 1.000000
vt 0.000000 1.000000
vt 0.000000 0.000000
vt 1.000000 0.000000
vt 1.000000 1.000000
vt 0.000000 1.000000
vt 0.000000 0.000000
vt 1.000000 0.000000
vt 1.000000 1.000000
vt 0.000000 1.000000
vt 0.000000 0.000000
vt 1.000000 0.000000
vt 1.000000 1.000000
vt 0.000000 0.000000
vt 1.000000 0.000000
vt 1.000000 1.000000
vt 0.000000 1.000000
vt 0.000000 0.000000
vt 1.000000 0.000000
vt 1.000000 1.000000
vt 0.000000 1.000000
vt 0.000000 0.000000
vt 1.000000 0.000000
vt 1.000000 1.000000
vt 0.000000 1.000000
vt 0.000000 0.000000
vt 1.000000 0.000000
vt 1.000000 1.000000
vt 0.000000 0.000000
vt 1.000000 0.000000
vt 1.000000 1.000000
vt 0.000000 1.000000
vt 0.000000 0.000000
vt 1.000000 0.000000
vt 1.000000 1.000000
vt 0.000000 1.000000
vt 0.000000 0.000000
vt 1.000000 0.000000
vt 1.000000 1.000000
vt 0.000000 1.000000
vt 0.000000 0.000000
vt 1.000000 1.000000
vt 1.000000 0.000000
vt 1.000000 1.000000
vt 0.000000 0.000000
vt 1.000000 0.000000
vt 1.000000 1.000000
vt 0.000000 1.000000
vt 0.000000 0.000000
vt 1.000000 0.000000
vt 0.000000 1.000000
vt 0.000000 0.000000
vt 1.000000 0.000000
vt 1.000000 1.000000
vt 0.000000 1.000000
vt 0.000000 0.000000
vt 1.000000 0.000000
vt 1.000000 1.000000
vt 0.000000 1.000000
vt 0.000000 0.000000
vt 1.000000 1.000000
vt 1.000000 0.000000
vt 1.000000 1.000000
vt 0.000000 0.000000
vt 1.000000 0.000000
vt 1.000000 1.000000
vt 0.000000 1.000000
vt 0.000000 0.000000
vt 1.000000 0.000000
vt 0.000000 1.000000
vt 0.000000 0.000000
vt 1.000000 0.000000
vt 1.000000 1.000000
vt 0.000000 1.000000
vt 0.000000 0.000000
vt 1.000000 0.000000
vt 1.000000 1.000000
vt 0.000000 1.000000
vt 0.000000 0.000000
vt 1.000000 1.000000
vt 1.000000 0.000000
vt 1.000000 1.000000
vt 0.000000 0.000000
vt 1.000000 0.000000
vt 1.000000 1.000000
vt 0.000000 1.000000
vt 0.000000 0.000000
vt 1.000000 0.000000
vt 0.000000 1.000000
vt 0.000000 0.000000
vt 1.000000 0.000000
vt 1.000000 1.000000
vt 0.000000 1.000000
vt 0.000000 0.000000
vt 1.000000 0.000000
vt 1.000000 1.000000
vt 0.000000 1.000000
vt 0.000000 0.000000
vt 1.000000 1.000000
vt 1.000000 0.000000
vt 1.000000 1.000000
vt 0.000000 0.000000
vt 1.000000 0.000000
vt 1.000000 1.000000
vt 0.000000 1.000000
vt 0.000000 0.000000
vt 1.000000 0.000000
vt 0.000000 1.000000
vt 0.000000 0.000000
vt 1.000000 0.000000
vt 1.000000 1.000000
vt 0.000000 1.000000
vt 0.000000 0.000000
vt 1.000000 1.000000
vt 1.000000 0.000000
vt 1.000000 1.000000
vt 0.000000 0.000000
vt 1.000000 0.000000
vt 1.000000 1.000000
vt 0.000000 1.000000
vt 0.000000 0.000000
vt 1.000000 0.000000
vt 0.000000 1.000000
vt 0.000000 0.000000
vt 1.000000 0.000000
vt 1.000000 1.000000
vt 0.000000 1.000000
vt 0.000000 0.000000
vt 1.000000 1.000000
vt 1.000000 0.000000
vt 1.000000 1.000000
vt 0.000000 0.000000
vt 1.000000 0.000000
vt 1.000000 1.000000
vt 0.000000 1.000000
vt 0.000000 0.000000
vt 1.000000 0.000000
vt 0.000000 1.000000
vt 0.000000 0.000000
vt 1.000000 0.000000
vt 1.000000 1.000000
vt 0.000000 1.000000
vt 0.000000 0.000000
vt 1.000000 0.000000
vt 1.000000 1.000000
vt 0.000000 1.000000
vn 0.0838 0.9625 -0.2579
vn 0.0838 -0.9625 -0.2579
vn 0.2994 -0.2469 -0.9216
vn 0.2239 0.6892 -0.6892
vn 0.2239 -0.6892 -0.6892
vn 0.2994 0.2469 -0.9216
vn 0.2194 -0.9625 -0.1594
vn 0.7840 -0.2469 -0.5696
vn 0.5862 0.6892 -0.4259
vn 0.5862 -0.6892 -0.4259
vn 0.7840 0.2469 -0.5696
vn 0.2194 0.9625 -0.1594
vn 0.9690 -0.2469 0.0000
vn 0.7246 0.6892 0.0000
vn 0.7246 -0.6892 -0.0000
vn 0.9690 0.2469 0.0000
vn 0.2712 0.9625 0.0000
vn 0.2712 -0.9625 -0.0000
vn 0.5862 0.6892 0.4259
vn 0.5862 -0.6892 0.4259
vn 0.7840 0.2469 0.5696
vn 0.2194 0.9625 0.1594
vn 0.2194 -0.9625 0.1594
vn 0.7840 -0.2469 0.5696
vn 0.2239 -0.6892 0.6892
vn 0.2994 0.2469 0.9216
vn 0.0838 0.9625 0.2579
vn 0.0838 -0.9625 0.2579
vn 0.2994 -0.2469 0.9216
vn 0.2239 0.6892 0.6892
vn -0.2239 -0.6892 0.6892
vn -0.2994 0.2469 0.9216
vn -0.0838 0.9625 0.2579
vn -0.0838 -0.9625 0.2579
vn -0.2994 -0.2469 0.9216
vn -0.2239 0.6892 0.6892
vn -0.5862 -0.6892 0.4259
vn -0.7840 0.2469 0.5696
vn -0.2194 0.9625 0.1594
vn -0.2194 -0.9625 0.1594
vn -0.7840 -0.2469 0.5696
vn -0.5862 0.6892 0.4259
vn -0.7246 -0.6892 0.0000
vn -0.9690 0.2469 0.0000
vn -0.2712 0.9625 0.0000
vn -0.2712 -0.9625 0.0000
vn -0.9690 -0.2469 -0.0000
vn -0.7246 0.6892 0.0000
vn -0.7840 0.2469 -0.5696
vn -0.2194 0.9625 -0.1594
vn -0.2194 -0.9625 -0.1594
vn -0.7840 -0.2469 -0.5696
vn -0.5862 0.6892 -0.4259
vn -0.5862 -0.6892 -0.4259
vn -0.0838 0.9625 -0.2579
vn -0.0838 -0.9625 -0.2579
vn -0.2994 -0.2469 -0.9216
vn -0.2239 0.6892 -0.6892
vn -0.2239 -0.6892 -0.6892
vn -0.2994 0.2469 -0.9216
usemtl None
s off
f 49/1/1 3/2/1 4/3/1
f 2/4/2 52/5/2 8/6/2
f 1/7/3 51/8/3 6/9/3 7/10/3
f 50/11/4 49/12/4 4/3/4 5/13/4
f 52/14/5 1/15/5 7/16/5 8/17/5
f 51/18/6 50/19/6 5/20/6 6/21/6
f 2/4/7 8/22/7 13/23/7
f 7/24/8 6/25/8 11/26/8 12/27/8
f 5/28/9 4/29/9 9/30/9 10/31/9
f 8/32/10 7/33/10 12/34/10 13/35/10
f 6/36/11 5/37/11 10/38/11 11/39/11
f 4/40/12 3/2/12 9/30/12
f 12/41/13 11/42/13 16/43/13 17/44/13
f 10/45/14 9/46/14 14/47/14 15/48/14
f 13/49/15 12/50/15 17/51/15 18/52/15
f 11/53/16 10/54/16 15/55/16 16/56/16
f 9/57/17 3/2/17 14/47/17
f 2/4/18 13/58/18 18/59/18
f 15/60/19 14/61/19 19/62/19 20/63/19
f 18/64/20 17/65/20 22/66/20 23/67/20
f 16/68/21 15/69/21 20/70/21 21/71/21
f 14/72/22 3/2/22 19/62/22
f 2/4/23 18/73/23 23/74/23
f 17/75/24 16/76/24 21/77/24 22/78/24
f 23/79/25 22/80/25 27/81/25 28/82/25
f 21/83/26 20/84/26 25/85/26 26/86/26
f 19/87/27 3/2/27 24/88/27
f 2/4/28 23/89/28 28/90/28
f 22/91/29 21/92/29 26/93/29 27/94/29
f 20/95/30 19/96/30 24/88/30 25/97/30
f 28/98/31 27/99/31 32/100/31 33/101/31
f 26/102/32 25/103/32 30/104/32 31/105/32
f 24/106/33 3/2/33 29/107/33
f 2/4/34 28/108/34 33/109/34
f 27/110/35 26/111/35 31/112/35 32/113/35
f 25/114/36 24/115/36 29/107/36 30/116/36
f 33/117/37 32/118/37 37/119/37 38/120/37
f 31/121/38 30/122/38 35/123/38 36/124/38
f 29/125/39 3/2/39 34/126/39
f 2/4/40 33/127/40 38/128/40
f 32/129/41 31/130/41 36/131/41 37/132/41
f 30/133/42 29/134/42 34/126/42 35/135/42
f 38/136/43 37/137/43 42/138/43 43/139/43
f 36/140/44 35/141/44 40/142/44 41/143/44
f 34/144/45 3/2/45 39/145/45
f 2/4/46 38/146/46 43/147/46
f 37/148/47 36/149/47 41/150/47 42/151/47
f 35/152/48 34/153/48 39/145/48 40/154/48
f 41/155/49 40/156/49 45/157/49 46/158/49
f 39/159/50 3/2/50 44/160/50
f 2/4/51 43/161/51 48/162/51
f 42/163/52 41/164/52 46/165/52 47/166/52
f 40/167/53 39/168/53 44/160/53 45/169/53
f 43/170/54 42/171/54 47/172/54 48/173/54
f 44/174/55 3/2/55 49/175/55
f 2/4/56 48/176/56 52/177/56
f 47/178/57 46/179/57 51/180/57 1/181/57
f 45/182/58 44/183/58 49/175/58 50/184/58
f 48/185/59 47/186/59 1/187/59 52/188/59
f 46/189/60 45/190/60 50/191/60 51/192/60
