# Blender v2.79 (sub 0) OBJ File: ''
# www.blender.org
mtllib ship.mtl
o Cone
v 0.000000 -1.000000 -1.000000
v 0.000000 1.000000 -0.150000
v 0.866025 -1.000000 -0.500000
v 0.129904 1.000000 -0.075000
v 0.866025 -1.000000 0.500000
v 0.129904 1.000000 0.075000
v -0.000000 -1.000000 1.000000
v -0.000000 1.000000 0.150000
v -0.866025 -1.000000 0.500000
v -0.129904 1.000000 0.075000
v -0.866025 -1.000000 -0.500000
v -0.129904 1.000000 -0.075000
vt 0.000000 0.000000
vt 1.000000 0.000000
vt 1.000000 1.000000
vt 0.000000 1.000000
vt 0.000000 0.000000
vt 1.000000 0.000000
vt 1.000000 1.000000
vt 0.000000 1.000000
vt 0.000000 0.000000
vt 1.000000 0.000000
vt 1.000000 1.000000
vt 0.000000 1.000000
vt 0.000000 0.000000
vt 1.000000 0.000000
vt 1.000000 1.000000
vt 0.000000 1.000000
vt 0.500000 1.000000
vt 0.933013 0.750000
vt 0.933013 0.250000
vt 0.500000 0.000000
vt 0.066987 0.250000
vt 0.066987 0.750000
vt 0.000000 0.000000
vt 1.000000 0.000000
vt 1.000000 1.000000
vt 0.000000 1.000000
vt 0.000000 0.000000
vt 1.000000 0.000000
vt 1.000000 1.000000
vt 0.000000 1.000000
vt 0.500000 1.000000
vt 0.933013 0.750000
vt 0.933013 0.250000
vt 0.500000 0.000000
vt 0.066987 0.250000
vt 0.066987 0.750000
vn 0.4692 0.3454 -0.8127
vn 0.9385 0.3454 0.0000
vn 0.4692 0.3454 0.8127
vn -0.4692 0.3454 0.8127
vn 0.0000 1.0000 0.0000
vn -0.9385 0.3454 0.0000
vn -0.4692 0.3454 -0.8127
vn 0.0000 -1.0000 0.0000
usemtl None
s off
f 1/1/1 2/2/1 4/3/1 3/4/1
f 3/5/2 4/6/2 6/7/2 5/8/2
f 5/9/3 6/10/3 8/11/3 7/12/3
f 7/13/4 8/14/4 10/15/4 9/16/4
f 4/17/5 2/18/5 12/19/5 10/20/5 8/21/5 6/22/5
f 9/23/6 10/24/6 12/25/6 11/26/6
f 11/27/7 12/28/7 2/29/7 1/30/7
f 1/31/8 3/32/8 5/33/8 7/34/8 9/35/8 11/36/8
